<svg width="107" height="18" viewBox="0 0 107 18" fill="none" xmlns="http://www.w3.org/2000/svg">
<path d="M105.808 0.739258V5.12053H93.9127C93.3742 5.12053 93.0805 5.24291 92.8847 5.43872C92.6644 5.65901 92.542 5.95272 92.542 6.29539C92.542 6.66254 92.7134 6.98073 92.9581 7.17654C93.154 7.34787 93.3987 7.4213 93.9127 7.4213H101.182C103.042 7.4213 104.291 8.00874 105.172 8.91436C106.053 9.81999 106.591 11.0438 106.591 12.3411C106.591 13.5404 106.126 14.6908 105.368 15.5719C104.462 16.6244 103.14 17.2853 101.182 17.2853H88.3566V13.0509H100.399C101.084 13.0509 101.427 12.904 101.647 12.6348C101.819 12.439 101.916 12.1697 101.916 11.876C101.916 11.5333 101.794 11.2151 101.574 10.9949C101.354 10.7501 101.035 10.6277 100.399 10.6277H93.668C91.4651 10.6277 90.1923 10.0403 89.3112 9.13465C88.43 8.22902 87.916 7.02968 87.916 5.68348C87.916 4.36176 88.4545 3.13794 89.3356 2.23232C90.2168 1.32669 91.4651 0.739258 93.668 0.739258H105.808Z" fill="white"/>
<path d="M71.3722 0.739258H86.4251V5.12053H73.8443C73.5751 5.12053 73.4527 5.26738 73.4527 5.53662V7.4213H86.3517V10.6032H73.4527V12.6103C73.4527 12.904 73.5751 13.0509 73.8443 13.0509H86.4251V17.2853H71.3477C69.8057 17.2853 69.0225 16.5265 69.0225 14.9845V2.96661C69.0225 1.47355 69.8057 0.739258 71.3722 0.739258Z" fill="white"/>
<path d="M52.3479 14.5929L46.3757 1.47355C46.2533 1.20431 46.1799 0.984023 46.1064 0.739258H51.3444C51.3933 0.959545 51.4423 1.13088 51.5157 1.32669L56.4599 12.7572C56.6068 13.1243 56.876 13.2712 57.1698 13.2712C57.4635 13.2712 57.6838 13.1488 57.8551 12.7572L62.7504 1.32669C62.8238 1.15536 62.8972 0.935069 62.9462 0.739258H68.1107C68.0373 0.984023 67.9638 1.20431 67.8414 1.47355L61.9182 14.5929C60.9881 16.6489 59.495 17.6279 57.1453 17.6279C54.82 17.6279 53.278 16.6489 52.3479 14.5929Z" fill="white"/>
<path d="M43.6554 3.43161L49.6276 16.5509C49.75 16.8202 49.8234 17.0405 49.8968 17.2852H44.9036C44.8547 17.0649 44.7813 16.8936 44.7078 16.7223L43.8267 14.7152H34.0361L33.1795 16.6978C33.106 16.8936 33.0326 17.0894 33.0081 17.2852H27.8926C27.966 17.0405 28.0394 16.8202 28.1618 16.5509L34.0851 3.43161C35.0152 1.3756 36.5083 0.37207 38.8825 0.37207C41.1832 0.37207 42.7253 1.3756 43.6554 3.43161ZM35.6516 11.0682H42.2112L39.6657 5.14496C39.5188 4.77781 39.2251 4.63096 38.9069 4.63096C38.6132 4.63096 38.344 4.75334 38.1726 5.14496L35.6516 11.0682Z" fill="white"/>
<path d="M14.8327 4.31276C14.5634 4.31276 14.3921 4.43515 14.2942 4.80229L11.7242 13.932C11.0144 16.4775 9.47235 17.6279 6.92681 17.6279C3.91622 17.6279 2.47211 16.0369 2.12944 13.932L0.073429 1.52246C0.0244764 1.20427 0 0.98398 0 0.739215H4.67498C4.67498 0.91055 4.69946 1.15531 4.72394 1.3756L6.46176 12.6837C6.51071 13.0753 6.70652 13.2466 7.04919 13.2466C7.34291 13.2466 7.53872 13.1243 7.63662 12.7326L10.1577 3.84771C10.843 1.47351 12.1648 0.37207 14.8327 0.37207C17.4761 0.37207 18.7244 1.47351 19.3363 3.72533L21.8084 12.7326C21.9063 13.1243 22.1022 13.2466 22.3959 13.2466C22.7385 13.2466 22.9099 13.0753 22.9833 12.6837L24.868 1.3756C24.9169 1.13084 24.9169 0.886074 24.9169 0.739215H29.543C29.543 0.98398 29.5185 1.17979 29.4695 1.52246L27.2667 13.9564C26.875 16.1348 25.4065 17.6279 22.4203 17.6279C19.9238 17.6279 18.4062 16.4286 17.7454 13.932L15.3712 4.80229C15.2732 4.43515 15.1019 4.31276 14.8327 4.31276Z" fill="white"/>
</svg>
