<svg width="181" height="33" viewBox="0 0 181 33" fill="none" xmlns="http://www.w3.org/2000/svg">
<g clip-path="url(#clip0_297_1301)">
<path d="M124.304 10.3598C123.675 10.372 122.577 9.70666 121.899 9.64986C121.887 9.64986 121.875 9.64986 121.866 9.6458C120.999 9.42673 120.128 9.31314 119.244 9.28068C114.045 9.14681 108.855 13.0536 108.251 18.2789C107.437 22.7415 110.071 27.7437 114.604 29.0703C115.34 29.3015 116.117 29.4151 116.91 29.4395C117.181 29.4354 117.214 29.8573 116.943 29.8898C113.236 30.5145 109.504 28.5388 107.408 25.5529C102.731 19.0822 105.941 7.90945 114.099 5.96213C118.024 5.01687 122.516 6.63963 124.554 10.0069C124.591 10.0677 124.591 10.1286 124.575 10.1894C124.538 10.299 124.427 10.3598 124.312 10.3639L124.304 10.3598Z" fill="#C7C3B5"/>
<path d="M123.363 8.02302C116.109 -1.0036 101.523 -2.31804 92.958 5.62945C89.0783 8.99262 86.3247 13.3295 83.0492 17.1957C77.6324 24.2628 70.4689 27.4881 62.3972 28.8147C56.4215 29.7965 51.0787 24.8227 51.9664 18.9077C51.9788 18.8144 51.9952 18.7251 52.0117 18.6318C52.6158 13.4065 57.8065 9.49974 63.0055 9.63361C63.8932 9.66607 64.7645 9.77966 65.6275 9.99874C65.6399 9.99874 65.6522 9.99874 65.6645 10.0028C66.3427 10.0596 67.44 10.7249 68.0688 10.7128C68.1839 10.7128 68.2948 10.6478 68.3318 10.5383C68.3524 10.4815 68.3483 10.4166 68.3113 10.3557C66.2769 6.99257 61.7807 5.36575 57.8558 6.31101C49.7019 8.25832 46.488 19.4311 51.165 25.9018C52.435 27.7153 54.3132 29.1555 56.4256 29.8654C56.8119 29.9952 57.2024 30.1251 57.5805 30.2711C59.0641 30.8431 60.5971 31.2529 62.1671 31.5369C93.2991 37.8129 93.447 -8.05857 124.148 10.3923C125.73 10.3395 123.786 8.63967 123.358 8.00679L123.363 8.02302Z" fill="#C7C3B5"/>
<path d="M180.544 10.3601C179.915 10.3722 178.818 9.7069 178.14 9.65011C178.127 9.65011 178.115 9.65011 178.107 9.64605C177.24 9.42698 176.368 9.31338 175.485 9.28093C170.286 9.14705 165.095 13.0539 164.491 18.2792C163.677 22.7418 166.311 27.7439 170.845 29.0705C171.58 29.3018 172.357 29.4154 173.15 29.4397C173.421 29.4357 173.454 29.8576 173.183 29.89C169.476 30.5148 165.744 28.5391 163.648 25.5532C158.971 19.0824 162.181 7.90969 170.339 5.96238C174.264 5.01712 178.756 6.63988 180.795 10.0071C180.832 10.068 180.832 10.1288 180.815 10.1897C180.778 10.2992 180.667 10.3601 180.552 10.3641L180.544 10.3601Z" fill="#C7C3B5"/>
<path d="M179.599 8.02302C172.345 -1.0036 157.759 -2.31804 149.194 5.62945C145.315 8.99262 142.561 13.3295 139.285 17.1957C133.869 24.2628 126.705 27.4881 118.634 28.8147C112.658 29.7965 107.315 24.8227 108.203 18.9077C108.215 18.8144 108.232 18.7251 108.248 18.6318C108.852 13.4065 114.043 9.49974 119.242 9.63361C120.13 9.66607 121.001 9.77966 121.864 9.99874C121.876 9.99874 121.889 9.99874 121.901 10.0028C122.579 10.0596 123.676 10.7249 124.305 10.7128C124.42 10.7128 124.531 10.6478 124.568 10.5383C124.589 10.4815 124.585 10.4166 124.548 10.3557C122.513 6.99257 118.017 5.36575 114.092 6.31101C105.938 8.25832 102.724 19.4311 107.401 25.9018C108.671 27.7153 110.549 29.1555 112.662 29.8654C113.048 29.9952 113.439 30.1251 113.817 30.2711C115.3 30.8431 116.833 31.2529 118.403 31.5369C149.535 37.8129 149.683 -8.05857 180.384 10.3923C181.966 10.3395 180.022 8.63967 179.595 8.00679L179.599 8.02302Z" fill="#C7C3B5"/>
<path d="M0.505067 29.9142C10.829 29.2083 20.0679 26.3117 26.693 17.6664C29.9685 13.8002 32.7262 9.46333 36.6018 6.10015C45.1667 -1.84734 59.7525 -0.532899 67.0064 8.49372C67.4338 9.1266 69.3819 10.8264 67.7955 10.8792C37.0991 -7.57164 36.9511 38.2998 5.81909 32.0197C4.03953 31.6952 2.3134 31.2165 0.648911 30.5187C0.410541 30.4619 0.542055 30.0643 0.509177 29.9142H0.505067Z" fill="#C7C3B5"/>
</g>
<defs>
<clipPath id="clip0_297_1301">
<rect width="180.5" height="32.2321" fill="white" transform="translate(0.5 0.384033)"/>
</clipPath>
</defs>
</svg>
