<svg width="126" height="76" viewBox="0 0 126 76" fill="none" xmlns="http://www.w3.org/2000/svg">
<g clip-path="url(#clip0_297_2061)">
<path d="M75.2593 41.1753H60.1799C60.3869 42.4424 60.9781 43.443 61.9066 44.2027C62.8621 44.9497 64.077 45.3196 65.5343 45.3295C67.2823 45.3267 69.1139 44.7768 69.9701 43.555H74.9262C74.0813 45.8128 71.8485 47.6724 70.4762 48.3059C69.1096 48.9551 67.4708 49.2669 65.5854 49.2669C62.6665 49.2641 60.2806 48.3811 58.4405 46.6236C56.6047 44.8519 55.6832 42.6451 55.6846 39.9946C55.6846 37.2691 56.6089 35.0084 58.4377 33.2155C60.2707 31.4211 62.5715 30.5211 65.3359 30.5211C68.2817 30.5211 70.6804 31.4211 72.5105 33.2126C74.3591 35.0027 75.2848 37.3711 75.2848 40.3249L75.2593 41.1753ZM70.6109 37.6503C70.3004 36.678 69.7008 35.8772 68.7736 35.2763C67.8649 34.6555 66.7889 34.3465 65.5811 34.3508C64.2726 34.3536 63.1201 34.6909 62.1363 35.3826C61.5068 35.8106 60.9242 36.5675 60.4082 37.6503H70.6109ZM101.999 37.9281C101.948 43.3041 99.9418 46.6193 98.6659 48.3938C97.3815 50.1797 95.9781 51.22 95.6832 51.4227C95.204 51.7515 95.6123 52.4347 96.0759 52.3185C99.5774 51.4425 103.405 51.1491 103.405 51.1491C103.405 51.1491 106.524 51.2172 107.718 47.3691C108.494 44.866 109.704 41.2391 109.704 37.9281C109.704 34.6172 108.493 30.9902 107.718 28.4872C106.524 24.6391 103.405 24.7071 103.405 24.7071C103.405 24.7071 99.5774 24.4137 96.0759 23.5378C95.6123 23.4216 95.204 24.1048 95.6832 24.4336C95.9781 24.6363 97.3815 25.6752 98.6659 27.4624C99.9418 29.2384 101.948 32.5521 101.999 37.9281ZM119.47 37.9281C119.521 43.3041 121.527 46.6193 122.803 48.3938C124.087 50.1797 125.49 51.22 125.785 51.4227C126.264 51.7515 125.856 52.4347 125.393 52.3185C121.891 51.4425 118.063 51.1491 118.063 51.1491C118.063 51.1491 114.945 51.2172 113.751 47.3691C112.974 44.866 111.765 41.2391 111.765 37.9281C111.765 34.6172 112.976 30.9902 113.751 28.4872C114.945 24.6391 118.063 24.7071 118.063 24.7071C118.063 24.7071 121.891 24.4137 125.393 23.5378C125.856 23.4216 126.264 24.1048 125.785 24.4336C125.49 24.6363 124.087 25.6752 122.803 27.4624C121.527 29.2384 119.522 32.5521 119.47 37.9281ZM27.6835 49.2669C25.5868 49.2669 23.8927 48.8233 22.6083 47.9417C21.3225 47.0658 20.4124 45.8298 19.8836 44.2509C19.5179 43.1652 19.3194 41.1668 19.3251 38.2867V30.9463H24.0614V39.5127C24.0501 41.2036 24.1706 42.3871 24.4257 43.0476C24.6809 43.7095 25.0764 44.2183 25.6364 44.5854C26.185 44.9412 26.8811 45.1382 27.6835 45.141C28.4858 45.1382 29.1819 44.9412 29.7305 44.5854C30.2905 44.2183 30.686 43.7095 30.9412 43.0476C31.1964 42.3871 31.3169 41.2036 31.3055 39.5127V30.9463H36.0418V38.2867C36.0475 41.1668 35.849 43.1652 35.4833 44.2509C34.9545 45.8284 34.0444 47.0658 32.7586 47.9417C31.4742 48.8233 29.7801 49.2669 27.6835 49.2669ZM79.1876 30.9491H74.0359L81.0305 47.3096L78.6574 52.3326H83.8956L94.0005 30.9491H88.7623L83.7354 41.5863L79.1876 30.9491ZM4.04438 33.7909L4.04154 24.6873H-0.693359V48.9948H4.04296L4.04438 38.3023H12.9812V48.9948H17.7175V24.6873H12.9812V33.7909H4.04438ZM49.3379 24.6873H54.0742V48.9948H49.3379V24.6873ZM42.3872 39.697V48.9877H37.6509V30.9434H41.7592V32.7903C42.9925 30.368 45.9681 30.0278 47.7288 31.0951V35.2196C47.2865 34.9843 45.7427 34.2402 44.1252 35.2323C42.7515 36.0757 42.3872 37.6319 42.3872 39.697Z" fill="white"/>
</g>
<defs>
<clipPath id="clip0_297_2061">
<rect width="126" height="76" fill="white" transform="translate(0 0.000244141)"/>
</clipPath>
</defs>
</svg>
