<svg width="101" height="38" viewBox="0 0 101 38" fill="none" xmlns="http://www.w3.org/2000/svg">
<g clip-path="url(#clip0_297_2043)">
<path fill-rule="evenodd" clip-rule="evenodd" d="M49.4446 0.000112589C55.2727 -0.0064075 59.8518 0.269163 64.812 1.11294C70.2273 2.0342 75.2777 3.27685 79.3448 5.60761C79.6452 5.77981 79.8748 5.89219 80.2649 6.14264C81.8502 7.16074 83.8236 8.79152 84.2032 10.9798C84.5099 12.7491 83.6828 14.1902 82.7905 15.2175C81.8642 16.2837 80.7282 17.0953 79.5158 17.7858C74.5702 20.6039 68.0495 22.1039 61.2804 22.8798C58.1348 23.2403 54.8361 23.5005 50.9643 23.5005C47.2001 23.5005 43.8761 23.3485 40.6694 23.0296C34.1478 22.3812 27.3173 21.0141 22.1773 18.4064C20.8973 17.7573 19.6997 17.0485 18.6243 16.095C17.6034 15.1899 16.6301 14.0673 16.3557 12.5209C15.8945 9.92277 17.7255 8.03308 19.2451 6.87039C20.8736 5.6241 22.9693 4.58299 24.9811 3.83126C29.1626 2.26835 34.2191 1.22992 39.2355 0.620674C42.5787 0.2147 45.5453 0.00433141 49.4446 0.000112589ZM49.5946 2.33297C45.0704 2.33297 40.7739 3.15431 37.0096 4.53755C35.1662 5.21487 33.5279 6.04675 32.0867 7.25567C30.8292 8.31077 29.3421 10.0025 29.6896 12.3281C29.9895 14.334 31.5844 15.7648 32.9429 16.7158C34.4595 17.7772 36.2787 18.5797 38.1227 19.1769C42.1062 20.4674 46.5689 21.0231 51.1783 20.9748C55.5574 20.9289 60.1635 20.1695 63.7846 18.7491C65.5702 18.0486 67.2833 17.191 68.6858 16.0095C69.9773 14.9216 71.3483 13.1644 70.9974 10.9798C70.683 9.023 69.1908 7.59221 67.7442 6.59213C66.1532 5.49216 64.4665 4.76824 62.5647 4.13081C59.6523 3.15488 56.3433 2.57594 53.1688 2.41869C52.173 2.36922 50.863 2.27467 49.6372 2.33297C49.6231 2.33374 49.6088 2.33297 49.5946 2.33297Z" fill="white"/>
<path fill-rule="evenodd" clip-rule="evenodd" d="M4.56188 27.9098C6.49356 27.9057 8.21217 27.888 9.7841 28.2096C10.3111 28.3173 10.9033 28.5211 11.0897 28.9156C11.2646 29.2859 11.1967 29.9 11.1967 30.7992C11.1967 32.4681 11.1967 33.9988 11.1967 35.7432C11.1967 36.0596 11.2368 36.4588 11.1539 36.6852C10.8964 37.3868 9.49569 37.5528 8.77809 37.6268C6.84583 37.8265 4.54711 37.8133 2.57133 37.6268C1.79658 37.5535 0.410677 37.3872 0.109984 36.7276C-0.0689357 36.3355 0.0242635 35.4094 0.0242635 34.823C0.0242635 33.3981 0.0242635 32.3556 0.0242635 30.885C0.0242635 30.1902 -0.0798665 29.2728 0.195512 28.8516C0.474535 28.4249 1.39042 28.1878 2.1433 28.081C2.98324 27.9618 3.62394 27.9117 4.56188 27.9098ZM4.39063 29.1298C4.31316 29.2875 4.34768 29.737 4.34768 30.0074C4.34768 31.6593 4.34768 33.0474 4.34768 34.6732C4.34768 35.2258 4.23875 36.1844 4.41191 36.4924C4.59122 36.8109 5.08674 36.8071 5.58917 36.8134C5.9869 36.8183 6.59347 36.8423 6.78772 36.5138C6.96357 36.2161 6.85197 35.3285 6.85197 34.7374C6.85197 33.2234 6.85197 32.4719 6.85197 31.0132C6.85197 30.6126 6.95226 29.4807 6.83049 29.1726C6.67516 28.7793 5.64594 28.8054 5.28945 28.8302C5.03362 28.8478 4.52353 28.8592 4.39063 29.1298Z" fill="white"/>
<path fill-rule="evenodd" clip-rule="evenodd" d="M21.2759 28.0167C23.0102 28.0163 24.9282 28.0169 26.7336 28.0167C27.9866 31.2013 29.2444 34.3811 30.4792 37.5839C28.8383 37.5839 27.1974 37.5839 25.5564 37.5839C25.2858 36.7986 25.0387 35.9902 24.7646 35.208C23.8424 35.1739 22.7756 35.1715 21.8538 35.208C21.5903 35.9648 21.389 36.7837 21.169 37.5839C20.0487 37.5839 18.9287 37.5839 17.8086 37.5839C18.6422 35.2049 19.5236 32.8225 20.3769 30.4354C20.6634 29.634 20.9935 28.7243 21.2759 28.0167ZM22.0678 34.095C22.8176 34.0598 23.7152 34.0598 24.4649 34.095C24.0384 32.838 23.6276 31.5652 23.1593 30.3498C22.8158 31.6186 22.4134 32.8286 22.0678 34.095Z" fill="white"/>
<path fill-rule="evenodd" clip-rule="evenodd" d="M42.4003 31.8693C43.4188 30.8167 44.4837 29.633 45.5465 28.4662C45.6751 28.3248 45.9039 28.0477 46.0174 28.0167C46.2725 27.9468 46.7269 28.0167 47.0234 28.0167C48.0011 28.0167 49.0368 28.0343 49.9982 27.9953C50.0397 28.1105 49.8814 28.1708 49.827 28.2307C48.7173 29.4527 47.5245 30.7498 46.3811 31.9549C47.5139 33.8257 48.7255 35.7319 49.8058 37.5838C48.1576 37.5838 46.5095 37.5838 44.8616 37.5838C43.9883 36.2454 43.2486 34.7734 42.4003 33.4104C42.4003 34.8015 42.4003 36.1926 42.4003 37.5838C40.845 37.5838 39.2897 37.5838 37.7345 37.5838C37.72 34.4943 37.763 31.1633 37.7129 28.0381C39.1973 27.9884 40.8874 28.0306 42.3358 28.0167C42.4533 28.0043 42.4003 28.2753 42.4003 28.4233C42.4003 29.5112 42.4003 30.7684 42.4003 31.8693Z" fill="white"/>
<path fill-rule="evenodd" clip-rule="evenodd" d="M57.1483 28.0168C58.6963 28.0168 60.2446 28.0168 61.7928 28.0168C61.7926 30.7636 61.7928 33.6244 61.7928 36.2997C63.3338 36.3138 64.9318 36.2712 66.4372 36.3211C66.4372 36.7421 66.4372 37.163 66.4372 37.584C63.3265 37.584 60.216 37.584 57.1055 37.584C57.155 34.65 57.1131 31.1776 57.1269 28.0596C57.0839 28.0406 57.1363 27.9657 57.1483 28.0168Z" fill="white"/>
<path fill-rule="evenodd" clip-rule="evenodd" d="M73.3925 28.0167C76.4389 28.0167 79.485 28.0167 82.5315 28.0167C82.5315 28.4234 82.5315 28.8301 82.5315 29.2368C81.0476 29.2368 79.5638 29.2368 78.0798 29.2368C78.0297 30.1715 78.0725 31.1985 78.0584 32.169C79.1999 32.1831 80.3984 32.1405 81.5043 32.1904C81.5124 32.6032 81.4888 32.9981 81.5257 33.3034C80.377 33.3034 79.2284 33.3034 78.0798 33.3034C78.0798 34.3163 78.0798 35.3294 78.0798 36.3427C79.5137 36.3923 81.0405 36.3497 82.5103 36.3641C82.5103 36.7705 82.5103 37.1772 82.5103 37.5839C79.4638 37.5839 76.4175 37.5839 73.3712 37.5839C73.3712 34.4092 73.3712 31.2343 73.3712 28.0595C73.362 28.0185 73.3858 27.9822 73.3925 28.0167Z" fill="white"/>
<path fill-rule="evenodd" clip-rule="evenodd" d="M100.682 27.9954C100.7 27.9914 100.702 28.0038 100.703 28.0168C99.4417 30.0154 98.0233 32.0432 96.701 34.0524C96.7149 35.202 96.6731 36.5198 96.7226 37.5625C95.1956 37.6124 93.5761 37.5696 92.0138 37.5839C92.0126 36.7468 92.0138 35.8628 92.0138 34.9514C92.0138 34.6596 92.068 34.3277 92.0138 34.0738C91.9663 33.8511 91.6668 33.5474 91.5001 33.3035C90.2989 31.5438 89.104 29.7495 87.9688 28.0168C89.6167 28.0168 91.2646 28.0168 92.9126 28.0168C93.6417 29.164 94.3037 30.3783 94.9888 31.5697C95.7067 30.4042 96.373 29.1869 97.0862 28.0168C98.2778 28.0026 99.5261 28.0452 100.682 27.9954Z" fill="white"/>
</g>
<defs>
<clipPath id="clip0_297_2043">
<rect width="100.704" height="37.7713" fill="white" transform="translate(0 0.000244141)"/>
</clipPath>
</defs>
</svg>
