<svg width="88" height="25" viewBox="0 0 88 25" fill="none" xmlns="http://www.w3.org/2000/svg">
<path d="M26.0126 21.6552C25.3933 21.6407 24.8672 21.1326 24.8672 20.5043L24.8688 0.000244141H18.1054V22.6024C18.1054 23.7101 19.0036 24.6142 20.1057 24.6142H31.9274C33.0374 24.6142 33.9246 23.7101 33.9246 22.6024V0.000244141H27.1676L27.1612 20.5043C27.1612 21.1326 26.635 21.6407 26.0126 21.6552ZM48.6578 0.000244141H38.4212C37.2101 0.000244141 36.2235 0.984408 36.2235 2.20742V24.614H42.9932V4.06047C42.998 3.43055 43.5081 2.93203 44.1371 2.93203C44.7691 2.93203 45.276 3.41928 45.2904 4.04287V24.6142H52.033V4.04263C52.041 3.41916 52.5479 2.93191 53.1784 2.93191C53.8041 2.93191 54.3207 3.43044 54.3255 4.06036V24.6142H61.0953V2.20742C61.0953 0.984408 60.1071 0.000244141 58.8959 0.000244141H48.6578ZM9.05423 4.10361C9.05907 3.41916 8.50082 2.93191 7.90884 2.93191H6.76022V15.3815H7.90884C8.50566 15.3815 9.05918 14.907 9.05423 14.2259V4.10361ZM13.5926 18.4285H6.76022V24.6142H0V0.000244141H13.636C14.8567 0.000244141 15.8096 0.990853 15.8096 2.21709V16.2118C15.8096 17.4397 14.8199 18.4285 13.5926 18.4285ZM84.2942 19.1098C82.9354 19.1098 81.7947 20.2831 81.7947 21.7049C81.7947 23.1315 82.9354 24.2951 84.3375 24.2951C85.7284 24.2951 86.8545 23.1315 86.8545 21.7049C86.8545 20.2799 85.7284 19.1098 84.3374 19.1098H84.2942ZM87.339 21.6969C87.339 23.3686 85.9978 24.7279 84.3375 24.7279C82.6594 24.7279 81.3119 23.3784 81.3119 21.6969C81.3119 20.0475 82.6594 18.669 84.2877 18.669C85.9978 18.669 87.339 20.0059 87.339 21.6969Z" fill="white"/>
<path d="M84.0241 21.5047C84.4941 21.5047 84.7413 21.338 84.7413 21.0047C84.7413 20.7081 84.5022 20.5559 84.0449 20.5559H83.9102V21.5047H84.0241ZM85.7551 23.4506H84.9482L83.9102 22.0706V23.4506H83.2509V19.9612H83.944C84.8856 19.9612 85.3861 20.3171 85.3861 20.9967C85.3861 21.4502 85.091 21.8527 84.6786 21.9728L84.6305 21.9905L85.7551 23.4506ZM72.4449 15.3866V4.05266C72.4287 3.42585 71.9235 2.94504 71.293 2.94504C70.6689 2.94504 70.1523 3.44507 70.1476 4.07027V15.3866H72.4449ZM72.4449 24.6144V18.4352H70.1476V24.6144H63.3906V2.20767C63.3906 0.984653 64.3771 0.000488281 65.5884 0.000488281H77.004C78.2185 0.000488281 79.2051 0.984653 79.2051 2.20767V24.6143L72.4449 24.6144Z" fill="white"/>
</svg>
