<svg width="126" height="27" viewBox="0 0 126 27" fill="none" xmlns="http://www.w3.org/2000/svg">
<g clip-path="url(#clip0_297_2059)">
<path fill-rule="evenodd" clip-rule="evenodd" d="M9.61017 3.05591C15.839 3.05591 19.9322 5.27861 19.9322 9.01276C19.9322 10.7909 18.5975 12.4802 16.4619 13.7249C18.0636 16.6589 19.8432 19.2372 22.2458 22.4379H20.733C15.572 22.4379 12.7246 20.393 10.322 15.5031C10.1441 15.5031 9.9661 15.5031 9.78814 15.5031C9.61017 15.5031 9.4322 15.5031 9.25424 15.5031V19.9485L12.1017 22.4379H0L2.75847 19.9485V5.72315L0 3.05591H9.61017ZM9.34322 13.5471H9.52119C12.2797 13.5471 13.1695 12.0356 13.1695 9.36839C13.1695 6.2566 12.1017 4.92298 9.4322 4.56735V13.5471H9.34322ZM124.131 19.8596C123.597 19.8596 123.331 19.5928 123.331 19.0594V13.0136C123.331 8.30149 120.127 6.70115 115.767 6.70115C111.585 6.70115 108.292 8.56822 108.292 10.7909C108.292 12.1245 109.36 12.7469 110.695 12.7469C112.297 12.7469 113.542 12.2135 114.254 11.4133C113.631 10.7909 113.275 10.0797 113.275 9.4573C113.275 8.65712 113.72 8.12367 114.61 8.12367C116.212 8.12367 117.547 9.72402 117.547 12.0356V12.3913C110.517 13.4582 107.847 16.3032 107.847 19.0594C107.847 21.4599 109.627 22.8824 111.941 22.8824C113.898 22.8824 116.123 21.8155 117.369 19.2372H117.458V19.5928C117.458 22.1712 118.97 22.8824 120.661 22.8824C122.797 22.8824 124.932 21.5488 126 19.3261C125.377 19.5928 124.843 19.8596 124.131 19.8596ZM117.547 15.8587C117.547 17.9925 116.657 18.7927 115.5 18.7927C114.521 18.7927 113.72 17.8147 113.72 16.481C113.72 15.3252 114.521 14.5251 115.678 14.5251C116.479 14.5251 117.191 14.7918 117.636 15.0585L117.547 15.8587ZM100.907 7.14569C102.064 7.67914 102.686 8.47931 102.686 9.90184C102.686 11.2355 102.242 12.7469 101.53 14.2583L100.462 16.3921L99.483 14.614C98.5932 13.1025 97.7924 11.4133 97.7924 9.90184C97.7924 8.56822 98.4153 7.67914 99.483 7.14569H88.4492C89.25 7.76804 90.1398 9.4573 90.8517 10.7909C91.0297 11.0576 91.1186 11.3244 91.2966 11.5911L98.0593 23.4159L104.644 11.8578C105.623 10.1686 106.78 8.3904 108.114 7.14569H100.907ZM28.0297 15.6809L36.661 12.7469C36.4831 9.4573 33.8136 6.87896 29.6314 6.87896C25.6271 6.87896 22.0678 10.1686 22.0678 14.9696C22.0678 20.2152 26.428 23.1492 30.3432 23.1492C33.5466 23.1492 36.928 21.1043 37.4619 17.0145C36.483 17.9036 35.0593 18.437 33.3686 18.437C31.1441 18.2592 29.2754 17.1923 28.0297 15.6809ZM28.1186 9.36839C29.1864 9.36839 30.5212 10.4353 31.233 12.4802L27.2288 14.4362C26.7839 13.5471 26.5169 12.5691 26.5169 11.5911C26.5169 10.0797 27.2288 9.36839 28.1186 9.36839ZM46.6271 8.56822C45.3814 8.56822 44.6695 9.10166 44.6695 9.90184C44.6695 11.0576 46.1822 11.5911 47.8729 12.2135C50.3644 13.1025 53.4788 14.1694 53.4788 17.5479C53.4788 20.8375 51.0763 22.8824 46.0932 22.9713C44.1356 22.9713 41.4661 22.7046 39.9534 21.9044L38.9746 16.8367C41.733 19.9485 44.1356 20.9264 45.8263 20.9264C47.072 20.9264 47.7839 20.393 47.7839 19.5039C47.7839 18.437 46.3602 17.9036 44.6695 17.2812C42.2669 16.3921 39.3305 15.3252 39.3305 12.1245C39.3305 9.01276 42.2669 6.70115 46.6271 6.70115C48.9407 6.70115 50.6314 7.14569 51.8771 7.59023L52.5 12.3913C50.4534 9.36839 48.1398 8.56822 46.6271 8.56822ZM61.3093 15.6809L69.9407 12.7469C69.7627 9.4573 67.0932 6.87896 62.911 6.87896C58.9068 6.87896 55.3475 10.1686 55.3475 14.9696C55.3475 20.2152 59.7076 23.1492 63.6229 23.1492C66.8263 23.1492 70.2076 21.1043 70.7415 17.0145C69.7627 17.9036 68.339 18.437 66.6483 18.437C64.3347 18.2592 62.4661 17.1923 61.3093 15.6809ZM61.3093 9.36839C62.3771 9.36839 63.7119 10.4353 64.4237 12.4802L60.4195 14.4362C59.9746 13.5471 59.7076 12.5691 59.7076 11.5911C59.7076 10.0797 60.4195 9.36839 61.3093 9.36839ZM79.7288 6.96787C85.8686 6.96787 88.0042 8.47931 88.0042 11.1466C88.0042 12.8358 86.7585 13.8138 84.9788 14.4362L89.9619 22.5268H88.4492C84.178 22.5268 82.3093 21.371 79.8178 16.481H79.3729H78.928V20.0374L81.2415 22.6157H70.7415L73.322 20.1263V9.81293L70.7415 6.96787H79.7288ZM78.928 14.7918H79.0169C81.4195 14.7918 82.1314 13.3693 82.1314 11.5911C82.1314 9.99075 81.2415 8.30149 78.839 8.47931V14.7918H78.928Z" fill="white"/>
</g>
<defs>
<clipPath id="clip0_297_2059">
<rect width="126.463" height="26.1186" fill="white" transform="translate(-0.462891 0.828857)"/>
</clipPath>
</defs>
</svg>
