<svg width="107" height="44" viewBox="0 0 107 44" fill="none" xmlns="http://www.w3.org/2000/svg">
<path d="M5.13205 38.684H3.53867L3.23443 35.2613H4.82782L5.13205 38.684ZM101.613 38.684H103.207L103.511 35.2613H101.918L101.613 38.684ZM2.29278 35.2613H0.699219L1.00345 38.684H2.59701L2.29278 35.2613ZM104.149 38.684H105.742L106.046 35.2613H104.453L104.149 38.684ZM13.1969 39.5169C13.1969 40.727 12.3324 41.7572 11.0307 41.7572C9.74035 41.7572 8.85213 40.7028 8.85213 39.4929V39.4689C8.85213 38.2589 9.71605 37.2285 11.0061 37.2285C12.3085 37.2285 13.1969 38.2828 13.1969 39.4929V39.5169ZM6.43016 39.5169C6.43016 41.9251 8.37743 43.854 11.0061 43.854C13.6349 43.854 15.6066 41.9011 15.6066 39.4929V39.4689C15.6066 37.0607 13.6595 35.1318 11.0307 35.1318C8.40156 35.1318 6.43016 37.0845 6.43016 39.4929V39.5169ZM17.0752 43.6864H19.4361V40.6911H23.4646V38.762H19.4361V37.3362H23.8907V35.2996H17.0752V43.6864ZM25.265 43.6864H27.6261V40.6911H31.6544V38.762H27.6261V37.3362H32.0803V35.2996H25.265V43.6864ZM38.7245 43.6864H41.0853V37.3364H43.6413V35.2998H36.1686V37.3364H38.7245V43.6864ZM45.1909 43.6864H47.5522V40.4995H50.5827V43.6864H52.9436V35.2996H50.5827V38.4387H47.5522V35.2996H45.1909V43.6864ZM54.5441 43.6864H61.4571V41.7092H56.8809V40.3797H60.9702V38.5464H56.8809V37.2765H61.3961V35.2996H54.5441L54.5441 43.6864ZM67.9429 43.7463H69.9998L71.7035 38.9179L73.4197 43.7463H75.4763L78.3245 35.2996H75.8781L74.3933 40.1518L72.7501 35.2758H70.7178L69.0747 40.1518L67.59 35.2996H65.095L67.9429 43.7463ZM81.0857 40.3797L82.0472 37.9954L82.9964 40.3797H81.0857ZM77.3007 43.6864H79.7835L80.3919 42.1889H83.6782L84.2989 43.6864H86.8301L83.2034 35.2397H80.9275L77.3007 43.6864ZM87.961 43.6864H94.4482V41.6496H90.3221V35.2996H87.961V43.6864ZM95.762 43.6864H102.249V41.6496H98.1231V35.2996H95.762V43.6864Z" fill="white"/>
<path d="M92.0224 14.1974H87.4439C86.9997 13.0714 86.5043 12.1929 83.9372 12.1929C82.1651 12.1929 81.4103 12.9238 81.4103 13.6586C81.4103 14.4599 82.0408 15.1362 83.9965 15.5704L88.144 16.6786C90.8584 17.4053 92.1761 19.5629 92.1761 21.8427C92.1761 23.1109 91.9024 24.6436 90.7001 25.897C89.8016 26.8337 88.4429 28.0696 83.9372 28.0696C77.7412 28.0696 75.7048 24.1475 75.7048 21.7773H80.5293C81.0035 23.5078 82.1889 24.1667 84.5389 24.1667C86.1659 24.1667 87.5632 23.5855 87.5632 22.3386C87.5632 21.1529 86.5517 20.7067 85.2441 20.3488L81.9674 19.4631C80.3876 18.9815 79.0667 18.5961 78.1344 17.8048C75.6927 15.7333 75.8705 11.9923 78.5256 10.047C79.9956 8.97076 81.5023 8.40871 83.8934 8.40871C86.703 8.40871 88.3062 9.21208 89.5709 10.0836C90.6913 10.8558 92.0224 12.7187 92.0224 14.1974ZM14.6875 0.937012C14.7249 1.10135 24.2719 27.8442 24.2719 27.8442H29.9676L38.7408 5.59172H93.2302L93.6438 0.937013H34.5533L27.2724 19.3879L20.7172 0.937012H14.6875ZM61.8141 18.2248L68.9271 27.8442H73.3777V8.81868H68.2407V19.1659L61.7889 8.81868H56.8705V27.8442H61.8141V18.2248ZM93.8472 26.8559C93.8472 26.3029 93.4065 25.8477 92.8404 25.8477C92.2744 25.8477 91.8278 26.3084 91.8278 26.8616C91.8278 27.4145 92.2685 27.8697 92.8349 27.8697C93.401 27.8697 93.8472 27.409 93.8472 26.8559ZM93.73 26.8559C93.73 27.3531 93.3451 27.7581 92.8349 27.7581C92.3273 27.7581 91.945 27.3586 91.945 26.8616C91.945 26.3645 92.33 25.9593 92.8404 25.9593C93.3481 25.9593 93.73 26.3588 93.73 26.8559ZM93.3201 26.6465C93.3201 26.423 93.1555 26.2916 92.899 26.2916H92.4221V27.3671H92.6589V27.0208H92.8459L93.0747 27.3671H93.3508L93.0886 26.9816C93.2253 26.9314 93.3201 26.8224 93.3201 26.6465ZM93.0802 26.6605C93.0802 26.7527 93.0161 26.8169 92.8963 26.8169H92.6589V26.5012H92.8904C93.0075 26.5012 93.0802 26.5544 93.0802 26.6605ZM34.6617 27.8442H40.1265L41.1466 24.8679H48.3794L49.426 27.8442H54.8062L47.9216 8.81868H42.1336L34.6617 27.8442ZM42.6733 21.4258L44.7898 15.1012L46.8791 21.4258H42.6733Z" fill="white"/>
</svg>
