<svg width="14" height="14" viewBox="0 0 14 14" fill="none" xmlns="http://www.w3.org/2000/svg">
<path d="M4.6894 5.11688L4.90624 5.08385L4.99987 4.8855L6.59456 1.50733C6.59458 1.50728 6.59461 1.50723 6.59463 1.50718C6.73198 1.2168 7.11251 1.21494 7.25166 1.5076C7.25171 1.50771 7.25176 1.50782 7.25181 1.50792L8.84622 4.8855L8.93985 5.08385L9.15669 5.11688L12.7247 5.66037L12.7251 5.66042C13.008 5.70329 13.1712 6.10742 12.9253 6.35757L12.9252 6.35768L10.3438 8.98583L10.1973 9.135L10.2312 9.34132L10.8417 13.0536C10.902 13.422 10.5471 13.6144 10.3134 13.4859L10.3133 13.4859L7.12133 11.7329L6.92305 11.6241L6.72476 11.7329L3.5328 13.4859L3.53149 13.4866C3.30065 13.6145 2.9437 13.4249 3.00438 13.0538C3.00439 13.0537 3.00439 13.0537 3.0044 13.0536L3.61491 9.34132L3.64884 9.135L3.50232 8.98583L0.920911 6.35768L0.920797 6.35757C0.674901 6.10742 0.838092 5.70329 1.12103 5.66042L1.12134 5.66037L4.6894 5.11688Z" fill="#FF9900" stroke="#FF9900" stroke-width="0.823829"/>
</svg>
