<svg width="30" height="26" viewBox="0 0 30 26" fill="#FF4C4C" xmlns="http://www.w3.org/2000/svg">
<path d="M26.3287 3.94496C25.6934 3.32835 24.9391 2.83921 24.1089 2.50549C23.2786 2.17177 22.3888 2 21.4901 2C20.5915 2 19.7016 2.17177 18.8714 2.50549C18.0412 2.83921 17.2869 3.32835 16.6516 3.94496L15.3332 5.22404L14.0147 3.94496C12.7314 2.70004 10.991 2.00065 9.17619 2.00065C7.36139 2.00065 5.62093 2.70004 4.33767 3.94496C3.05442 5.18988 2.3335 6.87836 2.3335 8.63895C2.3335 10.3995 3.05442 12.088 4.33767 13.3329L5.65614 14.612L15.3332 24L25.0102 14.612L26.3287 13.3329C26.9642 12.7166 27.4684 11.9849 27.8124 11.1794C28.1564 10.374 28.3335 9.51076 28.3335 8.63895C28.3335 7.76714 28.1564 6.90387 27.8124 6.09846C27.4684 5.29305 26.9642 4.56128 26.3287 3.94496V3.94496Z" stroke="#FF4C4C" stroke-width="3" stroke-linecap="round" stroke-linejoin="round"/>
</svg>
