<svg width="23" height="22" viewBox="0 0 23 22" fill="none" xmlns="http://www.w3.org/2000/svg">
<path d="M13.4461 20.5533L22.0168 11.8046C22.6611 11.1464 22.6611 9.98162 22.0168 9.32104L13.4461 0.572433C12.7768 -0.109156 11.6955 -0.106821 11.0308 0.579437C10.3661 1.26569 10.3661 2.37211 11.0353 3.05603L16.674 8.81452L2.20732 8.81452C1.2626 8.81452 0.499999 9.59881 0.499999 10.5652C0.499999 11.5315 1.2626 12.3158 2.20732 12.3158L16.674 12.3158L11.0353 18.072C10.7007 18.4151 10.5345 18.8633 10.5345 19.3138C10.5345 19.7596 10.7007 20.2078 11.0308 20.5486C11.6955 21.2325 12.7768 21.2348 13.4461 20.5533Z" fill="black"/>
</svg>
