<svg width="24" height="24" viewBox="0 0 24 24" fill="none" xmlns="http://www.w3.org/2000/svg">
<path d="M21.7499 13.5022C21.7499 16.3972 19.3949 18.7522 16.4999 18.7522H5.99987C5.58587 18.7522 5.24987 18.4162 5.24987 18.0022C5.24987 17.5882 5.58587 17.2522 5.99987 17.2522H16.4999C18.5669 17.2522 20.2499 15.5702 20.2499 13.5022C20.2499 11.4342 18.5669 9.75222 16.4999 9.75222H4.81091L6.53088 11.4722C6.82388 11.7652 6.82388 12.2402 6.53088 12.5332C6.38488 12.6792 6.19285 12.7532 6.00085 12.7532C5.80885 12.7532 5.61682 12.6802 5.47082 12.5332L2.47082 9.53323C2.40182 9.46423 2.34695 9.38133 2.30895 9.28933C2.23295 9.10633 2.23295 8.89933 2.30895 8.71633C2.34695 8.62433 2.40182 8.54119 2.47082 8.47219L5.47082 5.47219C5.76382 5.17919 6.23885 5.17919 6.53185 5.47219C6.82485 5.76519 6.82485 6.24023 6.53185 6.53323L4.81188 8.2532H16.5008C19.3948 8.2522 21.7499 10.6072 21.7499 13.5022Z" fill="#AEAEAE"/>
</svg>
