<svg width="15" height="15" viewBox="0 0 15 15" fill="none" xmlns="http://www.w3.org/2000/svg">
<path d="M7.6084 4.13227C5.61802 4.13227 4.01257 5.73808 4.01257 7.7289C4.01257 9.71973 5.61802 11.3255 7.6084 11.3255C9.59878 11.3255 11.2042 9.71973 11.2042 7.7289C11.2042 5.73808 9.59878 4.13227 7.6084 4.13227ZM7.6084 10.0672C6.32216 10.0672 5.27064 9.01856 5.27064 7.7289C5.27064 6.43925 6.31903 5.39062 7.6084 5.39062C8.89776 5.39062 9.94616 6.43925 9.94616 7.7289C9.94616 9.01856 8.89463 10.0672 7.6084 10.0672ZM12.19 3.98515C12.19 4.45155 11.8145 4.82405 11.3513 4.82405C10.885 4.82405 10.5126 4.44842 10.5126 3.98515C10.5126 3.52188 10.8881 3.14625 11.3513 3.14625C11.8145 3.14625 12.19 3.52188 12.19 3.98515ZM14.5716 4.83657C14.5184 3.71282 14.2618 2.71741 13.4387 1.89729C12.6188 1.07717 11.6236 0.820489 10.5001 0.764145C9.34216 0.69841 5.87151 0.69841 4.71358 0.764145C3.59321 0.817359 2.59802 1.07404 1.77495 1.89416C0.951887 2.71428 0.698395 3.70969 0.642064 4.83344C0.576343 5.99163 0.576343 9.46305 0.642064 10.6212C0.695266 11.745 0.951887 12.7404 1.77495 13.5605C2.59802 14.3806 3.59008 14.6373 4.71358 14.6937C5.87151 14.7594 9.34216 14.7594 10.5001 14.6937C11.6236 14.6404 12.6188 14.3838 13.4387 13.5605C14.2586 12.7404 14.5153 11.745 14.5716 10.6212C14.6373 9.46305 14.6373 5.99476 14.5716 4.83657ZM13.0757 11.8639C12.8316 12.4775 12.359 12.9501 11.7425 13.1974C10.8193 13.5636 8.62862 13.4791 7.6084 13.4791C6.58817 13.4791 4.39437 13.5605 3.47429 13.1974C2.8609 12.9533 2.38834 12.4806 2.14111 11.8639C1.77495 10.9405 1.85945 8.74936 1.85945 7.7289C1.85945 6.70845 1.77808 4.51416 2.14111 3.59387C2.38521 2.98035 2.85777 2.50768 3.47429 2.26039C4.3975 1.89416 6.58817 1.97867 7.6084 1.97867C8.62862 1.97867 10.8224 1.89729 11.7425 2.26039C12.3559 2.50455 12.8285 2.97722 13.0757 3.59387C13.4418 4.51729 13.3573 6.70845 13.3573 7.7289C13.3573 8.74936 13.4418 10.9436 13.0757 11.8639Z" fill="white"/>
</svg>
