<svg width="11" height="19" viewBox="0 0 11 19" fill="none" xmlns="http://www.w3.org/2000/svg">
<path d="M1.36619 15.688L1.71975 16.0415L1.36619 15.688C0.878186 16.176 0.877932 16.967 1.36543 17.4554C1.60977 17.7011 1.93133 17.8225 2.24978 17.8225C2.56858 17.8225 2.88982 17.7009 3.13477 17.4547C3.13502 17.4544 3.13528 17.4542 3.13553 17.4539L10.1343 10.4551C10.6226 9.96688 10.6226 9.17526 10.1343 8.687L3.13434 1.687C2.64608 1.19874 1.85446 1.19874 1.3662 1.687C0.877934 2.17526 0.877934 2.96688 1.3662 3.45514L7.48261 9.57156L1.36619 15.688Z" fill="white"/>
<path d="M1.36619 15.688L1.71975 16.0415L1.36619 15.688C0.878186 16.176 0.877932 16.967 1.36543 17.4554C1.60977 17.7011 1.93133 17.8225 2.24978 17.8225C2.56858 17.8225 2.88982 17.7009 3.13477 17.4547C3.13502 17.4544 3.13528 17.4542 3.13553 17.4539L10.1343 10.4551C10.6226 9.96688 10.6226 9.17526 10.1343 8.687L3.13434 1.687C2.64608 1.19874 1.85446 1.19874 1.3662 1.687C0.877934 2.17526 0.877934 2.96688 1.3662 3.45514L7.48261 9.57156L1.36619 15.688Z" stroke="white"/>
<path d="M1.36619 15.688L1.71975 16.0415L1.36619 15.688C0.878186 16.176 0.877932 16.967 1.36543 17.4554C1.60977 17.7011 1.93133 17.8225 2.24978 17.8225C2.56858 17.8225 2.88982 17.7009 3.13477 17.4547C3.13502 17.4544 3.13528 17.4542 3.13553 17.4539L10.1343 10.4551C10.6226 9.96688 10.6226 9.17526 10.1343 8.687L3.13434 1.687C2.64608 1.19874 1.85446 1.19874 1.3662 1.687C0.877934 2.17526 0.877934 2.96688 1.3662 3.45514L7.48261 9.57156L1.36619 15.688Z" stroke="white"/>
</svg>
