<svg width="11" height="19" viewBox="0 0 11 19" fill="none" xmlns="http://www.w3.org/2000/svg">
<path d="M10.1338 3.45558L9.78025 3.10203L10.1338 3.45558C10.6218 2.96757 10.6221 2.17652 10.1346 1.6882C9.89023 1.44244 9.56867 1.32102 9.25022 1.32102C8.93142 1.32102 8.61018 1.44265 8.36523 1.68885C8.36498 1.6891 8.36472 1.68936 8.36447 1.68961L1.36566 8.68841C0.8774 9.17668 0.8774 9.96829 1.36566 10.4566L8.36566 17.4566C8.85392 17.9448 9.64554 17.9448 10.1338 17.4566C10.6221 16.9683 10.6221 16.1767 10.1338 15.6884L4.01739 9.572L10.1338 3.45558Z" fill="white"/>
<path d="M10.1338 3.45558L9.78025 3.10203L10.1338 3.45558C10.6218 2.96757 10.6221 2.17652 10.1346 1.6882C9.89023 1.44244 9.56867 1.32102 9.25022 1.32102C8.93142 1.32102 8.61018 1.44265 8.36523 1.68885C8.36498 1.6891 8.36472 1.68936 8.36447 1.68961L1.36566 8.68841C0.8774 9.17668 0.8774 9.96829 1.36566 10.4566L8.36566 17.4566C8.85392 17.9448 9.64554 17.9448 10.1338 17.4566C10.6221 16.9683 10.6221 16.1767 10.1338 15.6884L4.01739 9.572L10.1338 3.45558Z" stroke="white"/>
<path d="M10.1338 3.45558L9.78025 3.10203L10.1338 3.45558C10.6218 2.96757 10.6221 2.17652 10.1346 1.6882C9.89023 1.44244 9.56867 1.32102 9.25022 1.32102C8.93142 1.32102 8.61018 1.44265 8.36523 1.68885C8.36498 1.6891 8.36472 1.68936 8.36447 1.68961L1.36566 8.68841C0.8774 9.17668 0.8774 9.96829 1.36566 10.4566L8.36566 17.4566C8.85392 17.9448 9.64554 17.9448 10.1338 17.4566C10.6221 16.9683 10.6221 16.1767 10.1338 15.6884L4.01739 9.572L10.1338 3.45558Z" stroke="white"/>
</svg>
