<svg width="39" height="42" viewBox="0 0 39 42" fill="none" xmlns="http://www.w3.org/2000/svg">
<path d="M35.7126 27.7385C35.7114 25.1242 35.7097 22.4819 35.7075 21.4863H35.7148V21.0878C35.7148 11.7851 28.5864 4.17532 19.7738 4.17532C10.9612 4.17532 3.83274 11.7851 3.83274 21.0878V22.3581C3.83274 22.8629 3.45373 23.2298 3.03569 23.2298H1.84011C1.42207 23.2298 1.04306 22.8629 1.04306 22.3581V21.0941C1.38286 10.3758 9.36185 1.16147 19.7738 1.16147C30.1857 1.16147 38.1647 10.3759 38.5045 21.0941V34.2449C38.5045 38.0065 35.6402 41.0141 32.157 41.0141H18.5782C16.8398 41.0141 15.39 39.5094 15.39 37.6017C15.39 35.694 16.8398 34.1893 18.5782 34.1893H20.9694C22.7078 34.1893 24.1576 35.694 24.1576 37.6017V38.0002H24.5561H32.157C34.1443 38.0002 35.7148 36.2958 35.7148 34.2449V34.2448L35.3163 34.2449C35.7148 34.2448 35.7148 34.2448 35.7148 34.2447V34.2442V34.2425V34.2354L35.7148 34.2076L35.7148 34.0992L35.7147 33.6874L35.7143 32.2161C35.7139 30.9977 35.7133 29.3711 35.7126 27.7385ZM12.6003 15.1348C13.6782 15.1348 14.5929 16.071 14.5929 17.2769V26.169C14.5929 27.3749 13.6782 28.3111 12.6003 28.3111H11.4047C9.00577 28.3111 7.02095 26.238 7.02095 23.6284V19.8175C7.02095 17.2079 9.00577 15.1348 11.4047 15.1348H12.6003ZM32.5266 23.6284C32.5266 26.238 30.5418 28.3111 28.1428 28.3111H26.9473C25.8694 28.3111 24.9546 27.3749 24.9546 26.169V17.2769C24.9546 16.071 25.8694 15.1348 26.9473 15.1348H28.1428C30.5418 15.1348 32.5266 17.2079 32.5266 19.8175V23.6284Z" fill="#FFFFFF" stroke="#FFFFFF" stroke-width="0.797052"/>
</svg>
