<svg width="33" height="32" viewBox="0 0 33 32" fill="none" xmlns="http://www.w3.org/2000/svg">
<g clip-path="url(#clip0_373_1822)">
<path d="M1.8335 5.33335V13.3334M1.8335 13.3334H9.8335M1.8335 13.3334L8.02016 7.52002C9.45316 6.0863 11.226 5.03896 13.1732 4.47572C15.1205 3.91247 17.1787 3.85169 19.1558 4.29903C21.1329 4.74637 22.9644 5.68726 24.4795 7.03391C25.9947 8.38056 27.1439 10.0891 27.8202 12M31.1668 26.6667V18.6667M31.1668 18.6667H23.1668M31.1668 18.6667L24.9802 24.48C23.5472 25.9137 21.7743 26.9611 19.8271 27.5243C17.8798 28.0876 15.8216 28.1483 13.8445 27.701C11.8674 27.2537 10.0359 26.3128 8.52078 24.9661C7.00567 23.6195 5.85639 21.911 5.18016 20" stroke="white" stroke-width="2" stroke-linecap="round" stroke-linejoin="round"/>
</g>
<defs>
<clipPath id="clip0_373_1822">
<rect width="32" height="32" fill="white" transform="translate(0.5)"/>
</clipPath>
</defs>
</svg>
