<svg width="32" height="30" viewBox="0 0 32 30" fill="none" xmlns="http://www.w3.org/2000/svg">
<path d="M5.53109 3.33333H1.59997C1.17563 3.33333 0.768672 3.15774 0.468619 2.84518C0.168567 2.53262 0 2.10869 0 1.66667C0 1.22464 0.168567 0.800716 0.468619 0.488155C0.768672 0.175595 1.17563 3.47428e-08 1.59997 3.47428e-08H6.83666C7.2055 -7.83835e-05 7.56304 0.132594 7.84877 0.375565C8.13449 0.618535 8.33086 0.956878 8.40463 1.33333L9.45101 6.66667H30.3994C30.6354 6.66657 30.8686 6.72088 31.0822 6.82572C31.2957 6.93056 31.4843 7.08333 31.6345 7.27306C31.7847 7.4628 31.8927 7.6848 31.9508 7.92315C32.0089 8.1615 32.0156 8.41028 31.9705 8.65167L29.873 19.8517C29.6744 20.8494 29.1474 21.7435 28.3832 22.3795C27.619 23.0156 26.6655 23.3535 25.6875 23.335L12.9917 23.3333C10.9566 23.3733 9.17741 21.9133 8.77582 19.855L6.59187 8.73333C6.58167 8.69037 6.57313 8.647 6.56627 8.60333L5.53109 3.33333ZM10.107 10L11.9118 19.1883C12.0046 19.66 12.4301 20.01 12.9629 20H25.7163C26.2187 20.01 26.6443 19.66 26.7339 19.2L28.457 10H10.107ZM12.7997 26.6667H25.5995C26.0238 26.6667 26.4308 26.8423 26.7308 27.1548C27.0309 27.4674 27.1994 27.8913 27.1994 28.3333C27.1994 28.7754 27.0309 29.1993 26.7308 29.5118C26.4308 29.8244 26.0238 30 25.5995 30H12.7997C12.3754 30 11.9684 29.8244 11.6684 29.5118C11.3683 29.1993 11.1998 28.7754 11.1998 28.3333C11.1998 27.8913 11.3683 27.4674 11.6684 27.1548C11.9684 26.8423 12.3754 26.6667 12.7997 26.6667Z" fill="#FFFFFF"/>
</svg>
