<svg width="25" height="28" viewBox="0 0 25 28" fill="none" xmlns="http://www.w3.org/2000/svg">
<path d="M21.0028 7.41667H18.2528V6.66667C18.2528 3.40326 15.5995 0.75 12.3361 0.75C9.0727 0.75 6.41943 3.40326 6.41943 6.66667V7.41667H3.66943C1.8781 7.41667 0.419434 8.87386 0.419434 10.6667V22C0.419434 23.6567 0.876428 24.9785 1.78366 25.8858C2.69089 26.793 4.01275 27.25 5.66943 27.25H19.0028C20.6595 27.25 21.9813 26.793 22.8885 25.8858C23.7958 24.9785 24.2528 23.6567 24.2528 22V10.6667C24.2528 8.87386 22.7941 7.41667 21.0028 7.41667ZM8.91943 6.66667C8.91943 4.78207 10.4515 3.25 12.3361 3.25C14.2207 3.25 15.7528 4.78207 15.7528 6.66667V7.41667H8.91943V6.66667ZM21.7528 22C21.7528 23.0227 21.5336 23.6927 21.1145 24.1117C20.6954 24.5308 20.0255 24.75 19.0028 24.75H5.66943C4.64673 24.75 3.97678 24.5308 3.55771 24.1117C3.13864 23.6927 2.91943 23.0227 2.91943 22V10.6667C2.91943 10.253 3.25662 9.91667 3.66943 9.91667H6.41943V12.6667C6.41943 13.3567 6.97936 13.9167 7.66943 13.9167C8.3595 13.9167 8.91943 13.3567 8.91943 12.6667V9.91667H15.7528V12.6667C15.7528 13.3567 16.3127 13.9167 17.0028 13.9167C17.6928 13.9167 18.2528 13.3567 18.2528 12.6667V9.91667H21.0028C21.4156 9.91667 21.7528 10.253 21.7528 10.6667V22Z" fill="#FFFFFF" stroke="#FFFFFF" stroke-width="0.5"/>
</svg>
