<svg width="14" height="14" viewBox="0 0 14 14" fill="none" xmlns="http://www.w3.org/2000/svg">
<path d="M5.05024 5.11688L5.26708 5.08385L5.36071 4.8855L6.9554 1.50733C6.95542 1.50728 6.95545 1.50723 6.95547 1.50718C7.09282 1.2168 7.47335 1.21494 7.6125 1.5076C7.61255 1.50771 7.6126 1.50782 7.61265 1.50792L9.20706 4.8855L9.30069 5.08385L9.51753 5.11688L13.0856 5.66037L13.0859 5.66042C13.3688 5.70329 13.532 6.10742 13.2861 6.35757L13.286 6.35768L10.7046 8.98583L10.5581 9.135L10.592 9.34132L11.2025 13.0536C11.2629 13.422 10.908 13.6144 10.6742 13.4859L10.6741 13.4859L7.48217 11.7329L7.28389 11.6241L7.0856 11.7329L3.89364 13.4859L3.89233 13.4866C3.66149 13.6145 3.30454 13.4249 3.36522 13.0538C3.36523 13.0537 3.36523 13.0537 3.36524 13.0536L3.97575 9.34132L4.00968 9.135L3.86316 8.98583L1.28175 6.35768L1.28164 6.35757C1.03574 6.10742 1.19893 5.70329 1.48187 5.66042L1.48218 5.66037L5.05024 5.11688Z" stroke="#FF9900" stroke-width="0.823829"/>
</svg>
