<svg width="33" height="32" viewBox="0 0 33 32" fill="none" xmlns="http://www.w3.org/2000/svg">
<g clip-path="url(#clip0_373_1819)">
<path d="M21.8335 21.3333V4H1.8335V21.3333H21.8335ZM21.8335 21.3333H31.1668V14.6667L27.1668 10.6667H21.8335V21.3333ZM11.1668 24.6667C11.1668 26.5076 9.67445 28 7.8335 28C5.99255 28 4.50016 26.5076 4.50016 24.6667C4.50016 22.8257 5.99255 21.3333 7.8335 21.3333C9.67445 21.3333 11.1668 22.8257 11.1668 24.6667ZM28.5002 24.6667C28.5002 26.5076 27.0078 28 25.1668 28C23.3259 28 21.8335 26.5076 21.8335 24.6667C21.8335 22.8257 23.3259 21.3333 25.1668 21.3333C27.0078 21.3333 28.5002 22.8257 28.5002 24.6667Z" stroke="white" stroke-width="2" stroke-linecap="round" stroke-linejoin="round"/>
</g>
<defs>
<clipPath id="clip0_373_1819">
<rect width="32" height="32" fill="white" transform="translate(0.5)"/>
</clipPath>
</defs>
</svg>
